<svg width="650" height="650" viewBox="0 0 650 650" fill="none" xmlns="http://www.w3.org/2000/svg">
<g clip-path="url(#clip0_28_921)">
<ellipse cx="325" cy="325" rx="325" ry="325" fill="#335CA5"/>
<g clip-path="url(#clip1_28_921)">
<path d="M390.12 358.893C391.267 358.893 393.547 358.427 397.067 356.347L402.773 352.948V358.906C406.387 357.68 412 356.36 418.28 355.321V352.961L415.24 352.681C411.72 352.401 411.147 351.828 411.147 346.816V291.107C407.347 292.24 400.787 293.666 395.747 294.32V296.679C402.213 297.252 402.787 297.532 402.787 303.491V316.448C400.6 315.689 398.133 315.502 396.987 315.502C383.667 315.502 372.36 325.807 372.36 338.764C372.36 351.721 382.533 358.906 390.147 358.906M191.76 357.773H218.68V355.027C209.933 354.454 209.173 353.894 209.173 346.042V331.579L216.027 333.378C217.067 333.472 218.787 333.472 220.213 333.285C231.72 331.765 238.76 324.393 238.76 313.902C238.76 308.037 236.573 303.691 232.48 300.572C228.96 297.919 223.827 296.692 216.507 296.692H192.733V299.252C199.773 299.825 200.347 300.478 200.347 308.61V345.949C200.347 353.708 199.493 354.454 191.787 355.027V357.773H191.76ZM215.627 329.406C212.867 329.406 210.307 328.833 209.16 328.366V305.091C209.16 302.638 209.44 301.598 210.107 300.932C210.773 300.265 212.573 299.798 214.96 299.798C223.613 299.798 228.84 305.184 228.84 314.262C228.84 323.9 223.707 329.392 215.627 329.392M240.253 357.76H262.88V355.214C255.747 354.641 255.267 354.081 255.267 348.029V330.726C257.267 325.713 260.12 323.26 262.307 323.26C263.92 323.26 265.067 323.74 266.493 325.153C266.867 325.527 267.253 325.727 267.827 325.727C268.213 325.727 268.587 325.633 269.067 325.447C271.16 324.593 272.4 322.607 272.4 320.434C272.4 318.075 270.12 315.515 266.693 315.515C262.32 315.515 258.413 320.528 255.467 325.447H255.28V315.329C250.427 317.222 246.053 318.355 241.2 319.115V321.474C246.427 322.327 246.907 322.607 246.907 328.379V348.042C246.907 354.094 246.24 354.654 240.253 355.227V357.773V357.76ZM291.613 358.893C301.32 358.893 312.347 351.708 312.347 336.484C312.347 324.953 303.693 315.489 291.707 315.489C282.773 315.489 270.693 322.674 270.693 338.084C270.693 348.482 278.307 358.88 291.613 358.88M292.667 355.667C285.16 355.667 280.307 346.869 280.307 335.058C280.307 324.274 285.16 318.701 290.667 318.701C298.467 318.701 302.747 327.3 302.747 338.644C302.747 351.788 298.093 355.667 292.667 355.667ZM394.427 352.828C388.627 352.828 381.773 347.535 381.773 336.284C381.773 322.581 389.573 319.075 393.667 319.075C397 319.075 400.613 320.688 402.8 323.9V349.895C400.52 351.508 397.573 352.828 394.427 352.828M360.76 306.69C363.613 306.69 365.893 304.424 365.893 301.678C365.893 298.652 363.613 296.386 360.853 296.386C358.093 296.386 355.627 298.652 355.627 301.678C355.627 304.424 358 306.69 360.76 306.69ZM437.32 358.88C440.453 358.88 447.013 357.173 453.013 349.615L451.493 347.535C448.067 350.655 444.547 352.174 440.747 352.174C434.093 352.174 426.867 346.882 426.867 334.591C437.8 334.218 449.4 333.365 451.12 333.072C453.027 332.792 453.4 331.845 453.4 329.952C453.4 322.487 447.027 315.489 439.04 315.489C434.093 315.489 429.24 318.035 425.067 322.394C420.973 326.646 418.693 332.419 418.693 338.844C418.693 349.522 425.547 358.893 437.333 358.893M427.44 330.619C428.68 322.967 432.667 318.995 436.853 318.995C441.8 318.995 444.747 323.527 444.747 328.446C444.747 329.859 444.267 330.246 442.56 330.339C437.333 330.619 432.387 330.619 427.44 330.619M455.493 357.76H476.507V355.214C471.187 354.641 470.613 354.267 470.613 348.029V325.807C473.373 323.447 476.893 321.367 480.307 321.367C486.107 321.367 488.587 325.153 488.587 331.765V347.455C488.587 353.974 487.92 354.641 482.6 355.214V357.76H502.853V355.214C497.427 354.547 496.867 354.267 496.867 348.029V329.872C496.867 320.794 492.2 315.502 484.6 315.502C481.84 315.502 479.467 316.542 476.8 318.341C474.427 319.954 472.52 321.274 470.613 322.687V315.222C466.147 317.022 461.387 318.248 456.533 319.101V321.461C461.667 322.407 462.24 322.874 462.24 328.553V347.935C462.24 354.081 461.76 354.547 455.493 355.214V357.76V357.76ZM522.733 358.893C528.253 358.893 534.52 354.734 538.427 349.722L536.72 347.642C532.92 351.041 529.88 352.174 525.88 352.174C520.84 352.174 511.8 347.829 511.8 334.871C511.8 324.94 517.027 320.114 522.827 320.114C525.96 320.114 529.387 321.154 532.333 324.087C533.093 324.847 533.573 325.127 534.147 325.127C535.293 325.127 537.48 322.954 537.48 320.874C537.48 319.834 537.2 318.981 535.867 317.941C534.347 316.715 531.307 315.489 527.493 315.489C523.68 315.489 518.173 316.995 512.947 320.968C506.76 325.607 503.44 332.032 503.44 339.124C503.44 349.335 510.48 358.88 522.747 358.88M558.987 358.88C562.12 358.88 568.68 357.173 574.68 349.615L573.16 347.535C569.733 350.655 566.213 352.174 562.413 352.174C555.76 352.174 548.533 346.882 548.533 334.591C559.467 334.218 571.067 333.365 572.787 333.072C574.693 332.792 575.067 331.845 575.067 329.952C575.067 322.487 568.693 315.489 560.707 315.489C555.76 315.489 550.813 318.035 546.733 322.394C542.733 326.553 540.36 332.325 540.36 338.844C540.36 349.522 547.213 358.893 559 358.893M549.107 330.619C550.44 322.967 554.333 318.995 558.52 318.995C563.467 318.995 566.413 323.527 566.413 328.446C566.413 329.859 565.933 330.246 564.227 330.339C559 330.619 554.053 330.619 549.107 330.619M311.547 319.461C314.68 320.221 315.547 320.874 317.627 325.793C322.293 336.764 326.467 347.535 330.747 358.88H333.507C338.933 344.883 343.68 333.258 346.92 326.073C349.4 320.501 350.44 319.448 353.013 319.448C355.773 319.448 356.627 321.154 356.627 326.353V347.629C356.627 353.961 355.96 354.627 349.973 355.187V357.733H371.653V355.187C365.667 354.614 365 353.961 365 347.629V315.209C359.107 316.342 353.973 316.622 338.373 316.622V319.461C342.08 319.941 343.413 320.408 343.413 322.114C343.413 322.874 343.133 323.914 342.747 325.14C340.84 331.285 337.707 339.79 334.667 346.976C332.093 340.457 328.387 330.899 326.013 324.38C325.533 323.154 325.253 322.207 325.253 321.541C325.253 320.408 326.493 319.928 329.813 319.461V316.622H311.56V319.461H311.547Z" fill="white"/>
<path d="M113.733 371.61L130.773 371.61C126.987 367.851 125.467 364.172 125.467 355.987L125.467 333.858C125.467 330.085 127.36 328.206 131.147 328.206L153.4 328.206C161.64 328.206 165.333 329.712 169.12 333.471L169.12 316.528C165.333 320.301 161.64 321.807 153.4 321.807L131.147 321.807C127.36 321.807 125.467 319.927 125.467 316.155L125.467 294.026C125.467 285.841 126.987 282.162 130.773 278.389L113.733 278.389C117.52 282.162 119.04 285.828 119.04 294.026L119.04 316.155C119.04 319.927 117.147 321.807 113.36 321.807L91.1067 321.807C82.8667 321.807 79.1733 320.301 75.3867 316.528L75.3867 333.471C79.1733 329.712 82.8667 328.206 91.1067 328.206L113.36 328.206C117.147 328.206 119.04 330.085 119.04 333.858L119.04 355.987C119.04 364.185 117.52 367.851 113.733 371.61" fill="white">
                                    <animate attributeName="d" values="M113.733 371.61L130.773 371.61C126.987 367.851 125.467 364.172 125.467 355.987L125.467 333.858C125.467 330.085 127.36 328.206 131.147 328.206L153.4 328.206C161.64 328.206 165.333 329.712 169.12 333.471L169.12 316.528C165.333 320.301 161.64 321.807 153.4 321.807L131.147 321.807C127.36 321.807 125.467 319.927 125.467 316.155L125.467 294.026C125.467 285.841 126.987 282.162 130.773 278.389L113.733 278.389C117.52 282.162 119.04 285.828 119.04 294.026L119.04 316.155C119.04 319.927 117.147 321.807 113.36 321.807L91.1067 321.807C82.8667 321.807 79.1733 320.301 75.3867 316.528L75.3867 333.471C79.1733 329.712 82.8667 328.206 91.1067 328.206L113.36 328.206C117.147 328.206 119.04 330.085 119.04 333.858L119.04 355.987C119.04 364.185 117.52 367.851 113.733 371.61;M113.733 371.61L130.773 371.61C126.987 367.851 125.467 364.172 125.467 355.987L125.467 333.858C125.467 330.085 127.36 328.206 131.147 328.206L153.4 328.206C161.64 328.206 165.333 329.712 169.12 333.471L169.12 316.528C165.333 320.301 161.64 321.807 153.4 321.807L131.147 321.807C127.36 321.807 125.467 319.927 125.467 316.155L125.467 294.026C125.467 285.841 126.987 282.162 130.773 278.389L113.733 278.389C117.52 282.162 119.04 285.828 119.04 294.026L119.04 316.155C119.04 319.927 117.147 321.807 113.36 321.807L91.1067 321.807C82.8667 321.807 79.1734 320.301 75.3867 316.528L75.3867 333.471C79.1734 329.712 82.8667 328.206 91.1067 328.206L113.36 328.206C117.147 328.206 119.04 330.085 119.04 333.858L119.04 355.987C119.04 364.185 117.52 367.851 113.733 371.61;M113.733 371.61L130.773 371.61C126.987 367.851 125.467 364.172 125.467 355.987L125.467 333.858C125.467 330.085 127.36 328.206 131.147 328.206L153.4 328.206C161.64 328.206 165.333 329.712 169.12 333.471L169.12 316.528C165.333 320.301 161.64 321.807 153.4 321.807L131.147 321.807C127.36 321.807 125.467 319.927 125.467 316.155L125.467 294.026C125.467 285.841 126.987 282.162 130.773 278.389L113.733 278.389C117.52 282.162 119.04 285.828 119.04 294.026L119.04 316.155C119.04 319.927 117.147 321.807 113.36 321.807L91.1067 321.807C82.8667 321.807 79.1734 320.301 75.3867 316.528L75.3867 333.471C79.1734 329.712 82.8667 328.206 91.1067 328.206L113.36 328.206C117.147 328.206 119.04 330.085 119.04 333.858L119.04 355.987C119.04 364.185 117.52 367.851 113.733 371.61;M113.733 371.61L130.773 371.61C126.987 367.851 125.467 364.172 125.467 355.987L125.467 333.858C125.467 330.085 127.36 328.206 131.147 328.206L153.4 328.206C161.64 328.206 165.333 329.712 169.12 333.471L169.12 316.528C165.333 320.301 161.64 321.807 153.4 321.807L131.147 321.807C127.36 321.807 125.467 319.927 125.467 316.155L125.467 294.026C125.467 285.841 126.987 282.162 130.773 278.389L113.733 278.389C117.52 282.162 119.04 285.828 119.04 294.026L119.04 316.155C119.04 319.927 117.147 321.807 113.36 321.807L91.1067 321.807C82.8667 321.807 79.1734 320.301 75.3867 316.528L75.3867 333.471C79.1734 329.712 82.8667 328.206 91.1067 328.206L113.36 328.206C117.147 328.206 119.04 330.085 119.04 333.858L119.04 355.987C119.04 364.185 117.52 367.851 113.733 371.61;M113.733 371.61L130.773 371.61C126.987 367.851 125.467 364.172 125.467 355.987L125.467 333.858C125.467 330.085 127.36 328.206 131.147 328.206L153.4 328.206C161.64 328.206 165.333 329.712 169.12 333.471L169.12 316.528C165.333 320.301 161.64 321.807 153.4 321.807L131.147 321.807C127.36 321.807 125.467 319.927 125.467 316.155L125.467 294.026C125.467 285.841 126.987 282.162 130.773 278.389L113.733 278.389C117.52 282.162 119.04 285.828 119.04 294.026L119.04 316.155C119.04 319.927 117.147 321.807 113.36 321.807L91.1067 321.807C82.8667 321.807 79.1734 320.301 75.3867 316.528L75.3867 333.471C79.1734 329.712 82.8667 328.206 91.1067 328.206L113.36 328.206C117.147 328.206 119.04 330.085 119.04 333.858L119.04 355.987C119.04 364.185 117.52 367.851 113.733 371.61;M113.733 371.61L130.773 371.61C126.987 367.851 125.467 364.172 125.467 355.987L125.467 333.858C125.467 330.085 127.36 328.206 131.147 328.206L153.4 328.206C161.64 328.206 165.333 329.712 169.12 333.471L169.12 316.528C165.333 320.301 161.64 321.807 153.4 321.807L131.147 321.807C127.36 321.807 125.467 319.927 125.467 316.155L125.467 294.026C125.467 285.841 126.987 282.162 130.773 278.389L113.733 278.389C117.52 282.162 119.04 285.828 119.04 294.026L119.04 316.155C119.04 319.927 117.147 321.807 113.36 321.807L91.1067 321.807C82.8667 321.807 79.1734 320.301 75.3867 316.528L75.3867 333.471C79.1734 329.712 82.8667 328.206 91.1067 328.206L113.36 328.206C117.147 328.206 119.04 330.085 119.04 333.858L119.04 355.987C119.04 364.185 117.52 367.851 113.733 371.61;M113.733 371.61L130.773 371.61C126.987 367.851 125.467 364.172 125.467 355.987L125.467 333.858C125.467 330.085 127.36 328.206 131.147 328.206L153.4 328.206C161.64 328.206 165.333 329.712 169.12 333.471L169.12 316.528C165.333 320.301 161.64 321.807 153.4 321.807L131.147 321.807C127.36 321.807 125.467 319.927 125.467 316.155L125.467 294.026C125.467 285.841 126.987 282.162 130.773 278.389L113.733 278.389C117.52 282.162 119.04 285.828 119.04 294.026L119.04 316.155C119.04 319.927 117.147 321.807 113.36 321.807L91.1067 321.807C82.8667 321.807 79.1733 320.301 75.3867 316.528L75.3867 333.471C79.1733 329.712 82.8667 328.206 91.1067 328.206L113.36 328.206C117.147 328.206 119.04 330.085 119.04 333.858L119.04 355.987C119.04 364.185 117.52 367.851 113.733 371.61" begin="0s" dur="4s" repeatCount="indefinite" calcMode="linear" keyTimes="0;0.167;0.333;0.5;0.667;0.833;1"/></path>
<path d="M102.84 371.984C110.32 370.384 114.867 364.359 114.867 356.16V336.484C114.867 333.285 113.92 332.338 110.707 332.338H90.9067C82.6667 332.338 76.6133 336.857 75 344.296H102.84V371.97V371.984ZM169.52 305.704H141.68V278.016C134.2 279.616 129.653 285.641 129.653 293.84V313.516C129.653 316.715 130.6 317.661 133.813 317.661H153.6C161.84 317.661 167.907 313.142 169.507 305.704M90.9067 317.661H110.707C113.933 317.661 114.867 316.715 114.867 313.516V293.84C114.867 285.641 110.32 279.616 102.84 278.016V305.704H75C76.6133 313.142 82.6667 317.661 90.9067 317.661M129.64 356.174V336.498C129.64 333.298 130.587 332.352 133.8 332.352H153.587C161.827 332.352 167.893 336.871 169.493 344.309H141.653V371.984C134.173 370.384 129.627 364.359 129.627 356.16" fill="white"/>
</g>
<rect x="50" y="414.239" width="550" height="12" rx="6" fill="white">
                                    <animate attributeName="x" values="50;250;50;250;50;250;50" begin="0s" dur="4s" repeatCount="indefinite" calcMode="linear" keyTimes="0;0.167;0.333;0.5;0.667;0.833;1"/>
                                    <animate attributeName="width" values="550;150;550;150;550;150;550" begin="0s" dur="4s" repeatCount="indefinite" calcMode="linear" keyTimes="0;0.167;0.333;0.5;0.667;0.833;1"/></rect>
</g>
<defs>
<clipPath id="clip0_28_921">
<rect width="650" height="650" fill="white"/>
</clipPath>
<clipPath id="clip1_28_921">
<rect width="500" height="93.9675" fill="white" transform="translate(75 278.016)"/>
</clipPath>
</defs>
</svg>